<?xml version="1.0" encoding="UTF-8" standalone="yes"?>
<svg version="1.2" baseProfile="tiny-ps" width="762" height="762" viewBox="0 0 762 762" xmlns="http://www.w3.org/2000/svg">
  <title>bruce.bot</title>
  <desc>Logo for bruce.bot</desc>
  <path fill="#000000" d="M484.6 454.2c34.2 45.2 90.8 73.2 147.1 77.4 14 1 40.6-4.2 17.5 16.5-26.5 23.8-59.4 32.3-94.6 30.5-91.4-4.6-159.1-109.2-239.8-144.2-44.5-19.3-81.7-2.1-106.1 37.2-1.8 2.9-3.6 6.6.1 8.9 5.5 1.8 9.7-8.3 12.8-11.9 30.9-35.9 82.1-1.9 84.5 38.5 1.8 30-17.9 56.9-45.3 67.7-39 15.3-62.6-13.4-98.1-16.2-13.4-1.1-27.8.4-40.6 5.4-7.2 2.8-14.3 8.5-21 12.4-1.7 1-3.5 2-5.5 2.3-2 .3-4.2-.4-5.2-2.2-.7-1.3-.6-3 0-4.4.6-1.4 1.6-2.5 2.6-3.7 6.2-6.9 13.1-13 19.2-19.8 6.6-7.3 12.9-14.8 19-22.5 11.9-15.1 23.1-30.7 34.2-46.4 23.8-33.7 46-68.5 69.2-102.7 17.1-25.2 34.6-50.1 53.5-73.9 56.4-71 136-126.5 229.5-131.5 31.8-1.7.2 18.3-7.5 25.5-74.1 68.3-87.3 175.6-25.6 257.1"/>
</svg>