<?xml version="1.0" encoding="utf-8"?>
<svg baseProfile="tiny-ps" version="1.2" viewBox="0 0 258 258" xmlns="http://www.w3.org/2000/svg">
  <title>Bruce BIMI Logo</title>
  <desc>BIMI-compliant logo for bruce.bot and brucebot.com email authentication</desc>
  <path d="M178.2,137.3c14.1,18.8,37.4,30.5,60.6,32.2,5.8.4,16.7-1.7,7.2,6.9-10.9,9.9-24.5,13.4-38.9,12.7-37.6-1.9-65.5-45.4-98.7-60-18.3-8-33.6-.9-43.7,15.5-.7,1.2-1.5,2.7,0,3.7,2.3.7,4-3.5,5.3-5,12.7-14.9,33.8-.8,34.8,16,.7,12.5-7.4,23.7-18.7,28.2-16.1,6.4-25.8-5.6-40.4-6.7-5.5-.5-11.4.2-16.7,2.2-3,1.2-5.9,3.5-8.6,5.2-.7.4-1.4.8-2.3,1s-1.7-.2-2.1-.9c-.3-.5-.2-1.2,0-1.8s.7-1,1.1-1.5c2.6-2.9,5.4-5.4,7.9-8.2,2.7-3,5.3-6.2,7.8-9.4,4.9-6.3,9.5-12.8,14.1-19.3,9.8-14,18.9-28.5,28.5-42.7,7-10.5,14.2-20.8,22-30.7,23.2-29.5,56-52.6,94.5-54.7,13.1-.7,0,7.6-3.1,10.6-30.5,28.4-35.9,73.1-10.5,107" />
</svg>